<?xml version="1.0" encoding="iso-8859-1"?>
<!-- Generator: Adobe Illustrator 19.2.1, SVG Export Plug-In . SVG Version: 6.00 Build 0)  -->
<svg version="1.1" xmlns="http://www.w3.org/2000/svg" xmlns:xlink="http://www.w3.org/1999/xlink" x="0px" y="0px"
	 viewBox="0 0 964.074 960.846" style="enable-background:new 0 0 964.074 960.846;" xml:space="preserve">
<g id="Holy_Bible">
	<g>
		<path style="fill:#A1CAF1;" d="M964.074,483.119c0,453.605-595.774,652.613-868.85,290.5
			C-164.777,428.844,145.641-69.216,568.404,8.011C794.746,49.357,964.074,253.126,964.074,483.119z"/>
		<g>
			<path style="fill:#593521;" d="M352.967,324.234c8,1.827,350-157.295,350-157.295l16,590.416l-356,138.706L352.967,324.234z"/>
			<polygon style="fill:#432918;" points="352.967,324.234 224.967,297.563 254.967,862.061 362.967,896.061 			"/>
			<path style="fill:#FFFFFF;" d="M224.967,297.563l358-171.371c0,0-10,41.626,120,40.747l-350,157.295L224.967,297.563z"/>
			<polygon style="fill:#F5E283;" points="600.967,422.956 541.649,445.981 535.967,350.061 502.967,365.06 505.322,460.081 
				440.967,485.061 442.967,531.5 506.488,507.087 510.967,687.768 554.801,668.001 544.405,492.513 600.967,470.775 			"/>
			<polygon style="fill:#F4164F;" points="328.967,297.563 318.967,166.939 352.967,186.061 382.967,146.75 392.967,266.061 			"/>
		</g>
	</g>
</g>
<g id="Layer_1">
</g>
</svg>
